<?xml version="1.0" encoding="utf-8"?>
<!-- Generator: Adobe Illustrator 17.0.0, SVG Export Plug-In . SVG Version: 6.00 Build 0)  -->
<!DOCTYPE svg PUBLIC "-//W3C//DTD SVG 1.1//EN" "http://www.w3.org/Graphics/SVG/1.1/DTD/svg11.dtd">
<svg version="1.1" id="Layer_1" xmlns="http://www.w3.org/2000/svg" xmlns:xlink="http://www.w3.org/1999/xlink" x="0px" y="0px"
	 width="299px" height="34px" viewBox="0 0 299 34" enable-background="new 0 0 299 34" xml:space="preserve">
<g>
	<path fill="#FFFFFF" d="M12.674,33.606c-2.822,0-5.214-0.483-7.176-1.45c-1.963-0.967-3.634-2.219-5.014-3.755l4.6-4.651
		c2.177,2.432,4.86,3.646,8.05,3.646c1.717,0,2.99-0.349,3.818-1.048c0.828-0.698,1.242-1.625,1.242-2.781
		c0-0.881-0.246-1.618-0.736-2.21c-0.491-0.593-1.488-0.996-2.99-1.208l-3.174-0.411c-3.404-0.43-5.896-1.458-7.475-3.085
		c-1.58-1.627-2.369-3.792-2.369-6.494c0-1.443,0.276-2.763,0.828-3.961C2.83,5,3.619,3.971,4.647,3.112
		c1.027-0.86,2.284-1.528,3.772-2.004c1.487-0.476,3.181-0.714,5.083-0.714c2.422,0,4.554,0.385,6.394,1.152
		c1.84,0.768,3.419,1.889,4.738,3.363l-4.646,4.7c-0.767-0.88-1.695-1.601-2.783-2.163c-1.089-0.562-2.461-0.843-4.117-0.843
		c-1.564,0-2.73,0.273-3.496,0.819C8.825,7.97,8.442,8.729,8.442,9.7c0,1.093,0.299,1.882,0.897,2.369
		c0.598,0.486,1.571,0.834,2.921,1.046l3.174,0.507c3.312,0.521,5.765,1.543,7.36,3.063c1.594,1.52,2.392,3.676,2.392,6.469
		c0,1.535-0.276,2.946-0.828,4.236c-0.552,1.289-1.357,2.395-2.415,3.315c-1.058,0.922-2.369,1.635-3.933,2.141
		S14.667,33.606,12.674,33.606z"/>
	<path fill="#FFFFFF" d="M50.256,7.156v25.897h-6.992V7.156H34.57v-6.21h24.38v6.21H50.256z"/>
	<path fill="#FFFFFF" d="M88.941,33.054l-2.3-7.636H75.924l-2.3,7.636H66.54L77.12,0.947h8.648l10.442,32.107H88.941z M81.352,7.295
		h-0.23l-3.542,12.19h7.36L81.352,7.295z"/>
	<path fill="#FFFFFF" d="M116.357,17.874l-3.082-6.44h-0.138v21.62h-6.578V0.947h7.636l8.786,15.18l3.082,6.44h0.138V0.947h6.578
		v32.107h-7.636L116.357,17.874z"/>
	<path fill="#FFFFFF" d="M145.751,0.947h12.098c2.116,0,4.049,0.338,5.796,1.012c1.748,0.675,3.235,1.679,4.463,3.013
		c1.226,1.334,2.177,3.006,2.852,5.014c0.674,2.009,1.012,4.347,1.012,7.015s-0.338,5.007-1.012,7.015
		c-0.675,2.009-1.626,3.681-2.852,5.015c-1.228,1.334-2.715,2.339-4.463,3.013c-1.747,0.675-3.68,1.012-5.796,1.012h-12.098V0.947z
		 M157.849,26.844c2.085,0,3.727-0.582,4.922-1.748c1.196-1.165,1.795-3.036,1.795-5.611v-4.968c0-2.576-0.599-4.446-1.795-5.612
		c-1.195-1.165-2.837-1.748-4.922-1.748h-5.105v19.688H157.849z"/>
	<path fill="#FFFFFF" d="M196.582,33.606c-2.116,0-4.048-0.353-5.796-1.058s-3.235-1.755-4.462-3.151
		c-1.227-1.395-2.178-3.128-2.853-5.197c-0.675-2.07-1.012-4.47-1.012-7.199c0-2.729,0.337-5.129,1.012-7.199
		c0.675-2.07,1.626-3.802,2.853-5.198c1.227-1.395,2.714-2.445,4.462-3.151c1.748-0.705,3.68-1.058,5.796-1.058
		s4.048,0.353,5.796,1.058c1.748,0.706,3.235,1.756,4.462,3.151c1.227,1.396,2.178,3.128,2.853,5.198
		c0.674,2.07,1.012,4.47,1.012,7.199c0,2.729-0.338,5.129-1.012,7.199c-0.675,2.069-1.626,3.803-2.853,5.197
		c-1.227,1.396-2.714,2.446-4.462,3.151S198.698,33.606,196.582,33.606z M196.582,27.396c2.116,0,3.765-0.689,4.945-2.069
		c1.18-1.38,1.771-3.358,1.771-5.935v-4.783c0-2.576-0.591-4.554-1.771-5.934c-1.181-1.38-2.829-2.07-4.945-2.07
		s-3.765,0.69-4.945,2.07s-1.771,3.358-1.771,5.934v4.783c0,2.576,0.59,4.555,1.771,5.935S194.465,27.396,196.582,27.396z"/>
	<path fill="#FFFFFF" d="M229.057,0.947v19.688c0,2.27,0.444,3.964,1.334,5.083c0.889,1.12,2.376,1.679,4.462,1.679
		c2.085,0,3.572-0.559,4.462-1.679c0.89-1.119,1.334-2.813,1.334-5.083V0.947h6.809v18.952c0,2.361-0.224,4.408-0.667,6.141
		c-0.445,1.732-1.174,3.159-2.186,4.278s-2.315,1.947-3.91,2.483s-3.542,0.805-5.842,0.805s-4.248-0.269-5.842-0.805
		c-1.595-0.536-2.898-1.364-3.91-2.483s-1.741-2.546-2.185-4.278c-0.445-1.732-0.667-3.779-0.667-6.141V0.947H229.057z"/>
	<path fill="#FFFFFF" d="M273.63,7.156v25.897h-6.992V7.156h-8.693v-6.21h24.38v6.21H273.63z"/>
	<path fill="#FFFFFF" d="M294.468,33.56c-1.38,0-2.399-0.345-3.059-1.034c-0.66-0.69-0.989-1.571-0.989-2.646v-0.92
		c0-1.073,0.329-1.955,0.989-2.645c0.659-0.69,1.679-1.035,3.059-1.035s2.399,0.345,3.06,1.035c0.658,0.689,0.988,1.571,0.988,2.645
		v0.92c0,1.074-0.33,1.955-0.988,2.646C296.868,33.215,295.848,33.56,294.468,33.56z"/>
</g>
</svg>
