<?xml version="1.0" encoding="utf-8"?>
<!-- Generator: Adobe Illustrator 17.0.0, SVG Export Plug-In . SVG Version: 6.00 Build 0)  -->
<!DOCTYPE svg PUBLIC "-//W3C//DTD SVG 1.1//EN" "http://www.w3.org/Graphics/SVG/1.1/DTD/svg11.dtd">
<svg version="1.1" id="Layer_1" xmlns="http://www.w3.org/2000/svg" xmlns:xlink="http://www.w3.org/1999/xlink" x="0px" y="0px"
	 width="101px" height="46px" viewBox="0 0 101 46" enable-background="new 0 0 101 46" xml:space="preserve">
<path fill="#010101" d="M99.736,21.16L79.754,1.199c-1.015-1.015-2.643-1.015-3.658,0s-1.015,2.643,0,3.658L91.659,20.42H3.101
	c-1.438,0-2.601,1.163-2.601,2.601s1.163,2.601,2.601,2.601h88.558L76.095,41.143c-1.015,1.015-1.015,2.643,0,3.658
	c0.507,0.507,1.163,0.761,1.84,0.761c0.677,0,1.332-0.254,1.84-0.761l19.983-19.983C100.751,23.825,100.751,22.175,99.736,21.16z"/>
</svg>
